<?xml version="1.0" encoding="UTF-8" standalone="no"?><!DOCTYPE svg PUBLIC "-//W3C//DTD SVG 1.1//EN" "http://www.w3.org/Graphics/SVG/1.1/DTD/svg11.dtd"><svg width="100%" height="100%" viewBox="0 0 131 131" version="1.1" xmlns="http://www.w3.org/2000/svg" xmlns:xlink="http://www.w3.org/1999/xlink" xml:space="preserve" xmlns:serif="http://www.serif.com/" style="fill-rule:evenodd;clip-rule:evenodd;stroke-linejoin:round;stroke-miterlimit:2;"><path d="M130.012,65.006c0,35.878 -29.128,65.006 -65.006,65.006c-35.878,0 -65.006,-29.128 -65.006,-65.006c0,-35.878 29.129,-65.006 65.006,-65.006c35.878,0 65.006,29.129 65.006,65.006Z" style="fill:#4176c0;"/><g><path d="M18.414,90.764c-1.603,-0 -3.297,-0.115 -5.083,-0.344c-1.786,-0.229 -3.526,-0.595 -5.221,-1.099l0,-8.518c2.153,0.458 4.099,0.79 5.839,0.996c1.74,0.206 3.114,0.309 4.122,0.309c1.878,0 3.412,-0.309 4.602,-0.927c1.191,-0.618 2.073,-1.58 2.645,-2.885c0.573,-1.305 0.859,-2.988 0.859,-5.049l-0,-32.218l9.755,-0l-0,32.149c-0,3.847 -0.607,7.076 -1.821,9.686c-1.213,2.61 -3.103,4.58 -5.667,5.908c-2.565,1.328 -5.908,1.992 -10.03,1.992Z" style="fill:#fff;fill-rule:nonzero;"/><path d="M48.984,90.077l-0,-49.048l30.912,-0l0,8.587l-21.295,-0l-0,10.716l20.265,0l-0,8.587l-20.265,-0l-0,12.571l21.295,0l0,8.587l-30.912,0Z" style="fill:#fff;fill-rule:nonzero;"/><path d="M108.817,90.764c-4.717,-0 -8.598,-0.996 -11.644,-2.988c-3.045,-1.992 -5.312,-4.809 -6.801,-8.45c-1.488,-3.641 -2.232,-7.888 -2.232,-12.743c-0,-4.076 0.504,-7.728 1.511,-10.957c1.008,-3.228 2.485,-5.987 4.431,-8.277c1.946,-2.29 4.373,-4.03 7.282,-5.221c2.908,-1.191 6.239,-1.786 9.995,-1.786c2.381,-0 4.476,0.24 6.285,0.721c1.809,0.481 3.653,1.179 5.53,2.095l-3.297,8.175c-1.695,-0.87 -3.263,-1.465 -4.706,-1.786c-1.442,-0.321 -2.828,-0.481 -4.156,-0.481c-2.381,0 -4.396,0.401 -6.045,1.202c-1.649,0.802 -2.965,1.958 -3.95,3.469c-0.985,1.512 -1.694,3.321 -2.129,5.427c-0.436,2.107 -0.653,4.443 -0.653,7.007c-0,3.572 0.424,6.538 1.271,8.896c0.847,2.359 2.164,4.11 3.95,5.255c1.786,1.145 4.121,1.718 7.007,1.718c1.603,-0 3.24,-0.206 4.911,-0.619c1.672,-0.412 3.63,-1.122 5.874,-2.129l-0,8.93c-1.97,0.87 -4.019,1.512 -6.148,1.924c-2.13,0.412 -4.225,0.618 -6.286,0.618Z" style="fill:#fff;fill-rule:nonzero;"/></g></svg>